<?xml version="1.0" encoding="UTF-8" standalone="no"?><!DOCTYPE svg PUBLIC "-//W3C//DTD SVG 1.1//EN" "http://www.w3.org/Graphics/SVG/1.1/DTD/svg11.dtd"><svg width="100%" height="100%" viewBox="0 0 750 100" version="1.1" xmlns="http://www.w3.org/2000/svg" xmlns:xlink="http://www.w3.org/1999/xlink" xml:space="preserve" xmlns:serif="http://www.serif.com/" style="fill-rule:evenodd;clip-rule:evenodd;stroke-linejoin:round;stroke-miterlimit:1.41421;"><g id="DMeetup-Logo-v1.0" serif:id="DMeetup Logo v1.0"><g id="lettering"><path id="P" d="M648.9,6.55l47.1,0c18.4,0 33.3,13.8 33.3,30.8c0,17 -14.9,30.8 -33.3,30.8l-36.2,0l0,24.6l-10.8,0l0,-86.2l-0.1,0Zm47.1,52.5c12.4,0 22.4,-9.7 22.4,-21.7c0,-12 -10,-21.7 -22.4,-21.7l-36.2,0l0,43.4l36.2,0Z" style="fill-rule:nonzero;"/><path id="U" d="M564,6.55l0,48.5c0,16.2 13.2,29.3 29.6,29.3c16.4,0 29.6,-13.1 29.6,-29.3l0,-48.5l10.8,0l0,48.5c0,21.2 -18.1,38.4 -40.4,38.4c-22.3,0 -40.4,-17.2 -40.4,-38.4l0,-48.5l10.8,0Z" style="fill-rule:nonzero;"/><path id="T" d="M493.8,15.45l-35,0l0,-8.9l80.8,0l0,8.9l-35,0l0,77.4l-10.8,0l0,-77.4Z" style="fill-rule:nonzero;"/><path id="E_1_" d="M381.3,6.55l67,0l0,9.1l-56.2,0l0,29.3l48.9,0l0,9.1l-48.8,0l0,29.6l56.2,0l0,9.1l-67,0l0,-86.2l-0.1,0Z" style="fill-rule:nonzero;"/><path id="E" d="M296.6,6.55l67,0l0,9.1l-56.2,0l0,29.3l48.8,0l0,9.1l-48.8,0l0,29.6l56.2,0l0,9.1l-67,0l0,-86.2Z" style="fill-rule:nonzero;"/><path id="M" d="M173.1,6.55l12.6,0l40.7,54.7l40.8,-54.7l11.7,0l0,86.2l-10.3,0l0,-73l-42.9,57.1l-42.8,-56.8l0,72.7l-9.6,0l0,-86.2l-0.2,0Z" style="fill-rule:nonzero;"/><path id="D" d="M113.8,6.55l-34.7,0l0,20.3l9.5,-3l1.4,-0.4l0,-7.8l23.9,0c19.2,0 34.7,15.2 34.7,34c0,18.8 -15.6,34 -34.7,34l-23.9,0l0,-7l-1.3,-0.4l-9.6,-3.1l0,19.6l34.7,0c25.2,0 45.6,-19.3 45.6,-43.1c0,-23.8 -20.4,-43.1 -45.6,-43.1Z" style="fill-rule:nonzero;"/></g><g id="symbol"><path id="main_geometric_element" d="M20.7,49.75l69.3,22.3l22.5,-22.2l-22.6,-21.8l-69.2,21.7Z" style="fill:#e51500;fill-rule:nonzero;"/><path id="secondary_geometric_element" d="M66,64.15l24,7.9l22.4,-22.1l-29.2,0l-17.2,14.2Z" style="fill:#981c0f;fill-rule:nonzero;"/></g></g></svg>